<?xml version="1.0" encoding="utf-8"?>
<!-- Generator: Adobe Illustrator 23.0.1, SVG Export Plug-In . SVG Version: 6.00 Build 0)  -->
<svg version="1.1" id="Layer_1" xmlns="http://www.w3.org/2000/svg" xmlns:xlink="http://www.w3.org/1999/xlink" x="0px" y="0px"
	 viewBox="0 0 320 99.64" style="enable-background:new 0 0 320 99.64;" xml:space="preserve">
<style type="text/css">
	.st0{fill:#00B39B;}
	.st1{fill:#005A88;}
	.st2{fill:#58595B;}
</style>
<g>
	<g>
		<g>
			<g>
				<path class="st0" d="M320,62.64v6.48h-24.94v-6.48H320z"/>
			</g>
		</g>
		<g>
			<g>
				<path class="st1" d="M40.49,44.17c0-3.82,0.65-7.33,1.94-10.53c1.3-3.2,3.09-5.97,5.4-8.31c2.3-2.34,5.08-4.16,8.31-5.45
					c3.24-1.3,6.77-1.94,10.58-1.94c3.81,0,7.32,0.65,10.53,1.94c3.2,1.3,5.97,3.11,8.31,5.45c2.34,2.34,4.16,5.11,5.45,8.31
					c1.3,3.2,1.94,6.71,1.94,10.53s-0.65,7.33-1.94,10.53c-1.3,3.2-3.11,5.98-5.45,8.31c-2.34,2.34-5.11,4.16-8.31,5.45
					c-3.2,1.3-6.71,1.94-10.53,1.94c-3.82,0-7.34-0.65-10.58-1.94c-3.24-1.3-6.01-3.11-8.31-5.45c-2.3-2.34-4.1-5.11-5.4-8.31
					C41.14,51.5,40.49,47.99,40.49,44.17z M46.97,44.17c0,2.81,0.45,5.45,1.35,7.94c0.9,2.49,2.21,4.64,3.94,6.48
					c1.73,1.83,3.82,3.29,6.26,4.37c2.45,1.08,5.18,1.62,8.21,1.62c3.02,0,5.76-0.54,8.21-1.62c2.45-1.08,4.54-2.54,6.26-4.37
					c1.73-1.84,3.04-3.99,3.94-6.48c0.9-2.48,1.35-5.13,1.35-7.94c0-2.81-0.45-5.45-1.35-7.94c-0.9-2.48-2.21-4.64-3.94-6.48
					c-1.73-1.83-3.82-3.29-6.26-4.37c-2.45-1.08-5.18-1.62-8.21-1.62c-3.02,0-5.76,0.54-8.21,1.62c-2.45,1.08-4.53,2.54-6.26,4.37
					c-1.73,1.84-3.04,4-3.94,6.48C47.42,38.72,46.97,41.37,46.97,44.17z"/>
			</g>
			<g>
				<path class="st1" d="M160.02,4.87c0-1.37,0.47-2.52,1.4-3.46c0.93-0.93,2.09-1.4,3.46-1.4c1.37,0,2.52,0.47,3.46,1.4
					c0.93,0.94,1.4,2.09,1.4,3.46c0,1.37-0.47,2.52-1.4,3.46c-0.94,0.94-2.09,1.4-3.46,1.4c-1.37,0-2.52-0.47-3.46-1.4
					C160.49,7.39,160.02,6.24,160.02,4.87z M161.64,19.23h6.48v49.89h-6.48V19.23z"/>
			</g>
			<g>
				<path class="st1" d="M216.6,48.17c0,2.45,0.02,4.64,0.05,6.59c0.04,1.94,0.09,3.74,0.16,5.4c0.07,1.66,0.16,3.2,0.27,4.64
					c0.11,1.44,0.27,2.88,0.49,4.32h-6.05c-0.43-2.45-0.65-5.15-0.65-8.1h-0.22c-1.87,3.24-4.19,5.62-6.96,7.13
					c-2.77,1.51-6.28,2.27-10.53,2.27c-2.16,0-4.28-0.27-6.37-0.81c-2.09-0.54-3.96-1.4-5.61-2.59c-1.66-1.19-3.01-2.72-4.05-4.59
					c-1.04-1.87-1.57-4.14-1.57-6.8c0-3.81,0.97-6.84,2.92-9.07c1.94-2.23,4.34-3.9,7.18-5.02c2.84-1.11,5.87-1.83,9.07-2.16
					c3.2-0.33,6.03-0.49,8.48-0.49h7.56v-3.02c0-4.32-1.33-7.41-4-9.29c-2.66-1.87-6.01-2.81-10.04-2.81
					c-5.76,0-10.83,1.87-15.23,5.62l-3.78-4.43c2.38-2.3,5.33-4.05,8.85-5.24c3.53-1.19,6.91-1.78,10.15-1.78
					c6.05,0,10.87,1.42,14.47,4.27c3.6,2.84,5.4,7.43,5.4,13.77V48.17z M203.65,44.07c-2.74,0-5.38,0.18-7.94,0.54
					c-2.56,0.36-4.86,0.97-6.91,1.84c-2.05,0.86-3.69,2.02-4.91,3.46c-1.22,1.44-1.84,3.24-1.84,5.4c0,1.51,0.34,2.86,1.03,4.05
					c0.68,1.19,1.57,2.16,2.65,2.92c1.08,0.76,2.28,1.33,3.62,1.73c1.33,0.4,2.68,0.59,4.05,0.59c3.46,0,6.3-0.5,8.53-1.51
					c2.23-1.01,4.01-2.32,5.34-3.94c1.33-1.62,2.25-3.46,2.75-5.51c0.5-2.05,0.76-4.12,0.76-6.21v-3.35H203.65z"/>
			</g>
			<g>
				<path class="st1" d="M225.24,33.27c0-0.93-0.04-2.07-0.11-3.4c-0.07-1.33-0.13-2.68-0.16-4.05c-0.04-1.37-0.09-2.65-0.16-3.83
					c-0.07-1.19-0.11-2.11-0.11-2.75h6.48c0.07,1.87,0.12,4.97,0.16,6.69c0.04,1.73,0.12,2.85,0.27,3.35
					c1.66-2.95,3.78-5.36,6.37-7.24c2.59-1.87,5.76-2.81,9.5-2.81c0.65,0,1.28,0.05,1.89,0.16c0.61,0.11,1.24,0.23,1.89,0.38
					l-0.76,6.37c-0.86-0.29-1.69-0.43-2.48-0.43c-2.81,0-5.24,0.45-7.29,1.35c-2.05,0.9-3.74,2.14-5.07,3.73
					c-1.33,1.58-2.32,3.44-2.97,5.56c-0.65,2.12-0.97,4.41-0.97,6.86v25.92h-6.48V33.27z"/>
			</g>
			<g>
				<polygon class="st1" points="14.9,43.96 40.6,19.34 31.1,19.34 6.48,43.74 6.48,19.33 0,19.33 0,69.12 6.48,69.12 6.48,44.61 
					33.8,69.12 43.62,69.12 				"/>
			</g>
			<g>
				<path class="st1" d="M144.58,0v27.98h-0.22c-1.01-1.73-2.27-3.22-3.78-4.48c-1.51-1.26-3.15-2.3-4.91-3.13
					c-1.76-0.83-3.62-1.44-5.56-1.83c-1.94-0.4-3.85-0.59-5.72-0.59c-3.82,0-7.34,0.65-10.58,1.94c-3.24,1.3-6.01,3.11-8.31,5.45
					c-2.3,2.34-4.1,5.11-5.4,8.31c-1.3,3.2-1.94,6.71-1.94,10.53s0.65,7.33,1.94,10.53c1.3,3.2,3.09,5.98,5.4,8.31
					c2.3,2.34,5.08,4.16,8.31,5.45c3.24,1.3,6.77,1.94,10.58,1.94c1.87,0,3.78-0.2,5.72-0.59c1.94-0.4,3.8-1.01,5.56-1.84
					c1.76-0.83,3.4-1.87,4.91-3.13c1.51-1.26,2.77-2.75,3.78-4.48h0.22v8.75h6.48V0H144.58z M143.61,52.11
					c-1.08,2.49-2.56,4.64-4.43,6.48c-1.87,1.83-4.07,3.29-6.59,4.37c-2.52,1.08-5.26,1.62-8.21,1.62c-3.02,0-5.76-0.54-8.21-1.62
					c-2.45-1.08-4.53-2.54-6.26-4.37c-1.73-1.84-3.04-3.99-3.94-6.48c-0.9-2.48-1.35-5.13-1.35-7.94c0-2.81,0.45-5.45,1.35-7.94
					c0.9-2.48,2.21-4.64,3.94-6.48c1.73-1.83,3.82-3.29,6.26-4.37c2.45-1.08,5.18-1.62,8.21-1.62c2.95,0,5.69,0.54,8.21,1.62
					c2.52,1.08,4.71,2.54,6.59,4.37c1.87,1.84,3.35,4,4.43,6.48s1.62,5.13,1.62,7.94C145.23,46.98,144.69,49.63,143.61,52.11z"/>
			</g>
			<g>
				<path class="st1" d="M263.47,80.89c-0.36,1.01-0.78,2-1.24,2.97c-0.02,0.05-0.05,0.09-0.07,0.13h6.83l25.48-64.76h-6.91
					l-16.09,42l-16.52-42h-7.23l20.3,50.1L263.47,80.89z"/>
			</g>
		</g>
	</g>
	<g>
		<path class="st2" d="M61.04,89.33H57.3V88.4h8.51v0.93h-3.75v10.03h-1.02V89.33z"/>
		<path class="st2" d="M73.07,88.4h6.7v0.93h-5.68v3.9h5.32v0.93h-5.32v4.27h5.93v0.93h-6.95V88.4z"/>
		<path class="st2" d="M96.84,97.64c-0.53,0.71-1.14,1.22-1.83,1.53c-0.69,0.31-1.44,0.46-2.24,0.46c-0.84,0-1.6-0.14-2.3-0.43
			c-0.7-0.28-1.29-0.68-1.79-1.19s-0.88-1.12-1.16-1.83c-0.28-0.71-0.42-1.48-0.42-2.31c0-0.84,0.14-1.6,0.42-2.31
			c0.28-0.7,0.67-1.31,1.16-1.82c0.49-0.51,1.09-0.91,1.79-1.2c0.7-0.29,1.46-0.43,2.3-0.43c0.74,0,1.44,0.13,2.08,0.39
			c0.65,0.26,1.21,0.7,1.7,1.32l-0.84,0.7c-0.34-0.52-0.78-0.89-1.31-1.13c-0.53-0.24-1.08-0.36-1.63-0.36
			c-0.71,0-1.35,0.12-1.93,0.37c-0.57,0.25-1.06,0.59-1.46,1.02c-0.4,0.43-0.71,0.94-0.93,1.53c-0.22,0.59-0.32,1.22-0.32,1.9
			c0,0.68,0.11,1.32,0.32,1.9c0.22,0.59,0.53,1.1,0.93,1.53c0.4,0.43,0.89,0.77,1.46,1.02c0.57,0.25,1.21,0.37,1.93,0.37
			c0.28,0,0.57-0.03,0.87-0.1c0.3-0.07,0.59-0.17,0.87-0.31c0.28-0.14,0.56-0.32,0.81-0.53c0.26-0.21,0.48-0.47,0.68-0.77
			L96.84,97.64z"/>
		<path class="st2" d="M104.29,88.4h1.02v4.83h6.13V88.4h1.02v10.96h-1.02v-5.2h-6.13v5.2h-1.02V88.4z"/>
		<path class="st2" d="M121.03,88.4h1.32l6.67,9.6h0.03v-9.6h1.02v10.96h-1.32l-6.67-9.6h-0.03v9.6h-1.02V88.4z"/>
		<path class="st2" d="M137.93,93.88c0-0.84,0.14-1.6,0.42-2.31c0.28-0.7,0.67-1.31,1.16-1.82c0.49-0.51,1.09-0.91,1.79-1.2
			c0.7-0.29,1.46-0.43,2.3-0.43c0.84,0,1.6,0.15,2.3,0.43c0.7,0.29,1.29,0.69,1.79,1.2c0.49,0.51,0.88,1.12,1.16,1.82
			c0.28,0.7,0.42,1.47,0.42,2.31c0,0.84-0.14,1.61-0.42,2.31c-0.28,0.71-0.67,1.32-1.16,1.83c-0.5,0.51-1.09,0.91-1.79,1.19
			c-0.7,0.28-1.46,0.43-2.3,0.43c-0.84,0-1.6-0.14-2.3-0.43c-0.7-0.28-1.29-0.68-1.79-1.19c-0.49-0.51-0.88-1.12-1.16-1.83
			C138.07,95.49,137.93,94.72,137.93,93.88z M138.96,93.88c0,0.68,0.11,1.32,0.32,1.9c0.22,0.59,0.53,1.1,0.93,1.53
			c0.4,0.43,0.89,0.77,1.46,1.02s1.21,0.37,1.93,0.37c0.71,0,1.35-0.13,1.93-0.37s1.06-0.59,1.46-1.02c0.4-0.43,0.71-0.94,0.93-1.53
			c0.22-0.59,0.32-1.22,0.32-1.9c0-0.68-0.11-1.32-0.32-1.9c-0.22-0.59-0.53-1.1-0.93-1.53c-0.4-0.43-0.89-0.77-1.46-1.02
			c-0.57-0.25-1.22-0.37-1.93-0.37c-0.71,0-1.35,0.12-1.93,0.37c-0.57,0.25-1.06,0.59-1.46,1.02c-0.4,0.43-0.71,0.94-0.93,1.53
			C139.06,92.56,138.96,93.2,138.96,93.88z"/>
		<path class="st2" d="M157.13,88.4h1.02v10.03h5.11v0.93h-6.13V88.4z"/>
		<path class="st2" d="M169.72,93.88c0-0.84,0.14-1.6,0.42-2.31c0.28-0.7,0.67-1.31,1.16-1.82c0.49-0.51,1.09-0.91,1.79-1.2
			c0.7-0.29,1.46-0.43,2.3-0.43c0.84,0,1.6,0.15,2.3,0.43c0.7,0.29,1.29,0.69,1.79,1.2c0.5,0.51,0.88,1.12,1.16,1.82
			c0.28,0.7,0.42,1.47,0.42,2.31c0,0.84-0.14,1.61-0.42,2.31c-0.28,0.71-0.66,1.32-1.16,1.83c-0.5,0.51-1.09,0.91-1.79,1.19
			c-0.7,0.28-1.46,0.43-2.3,0.43c-0.83,0-1.6-0.14-2.3-0.43c-0.7-0.28-1.29-0.68-1.79-1.19c-0.5-0.51-0.88-1.12-1.16-1.83
			S169.72,94.72,169.72,93.88z M170.75,93.88c0,0.68,0.11,1.32,0.32,1.9c0.22,0.59,0.53,1.1,0.93,1.53c0.4,0.43,0.89,0.77,1.46,1.02
			c0.57,0.25,1.22,0.37,1.93,0.37c0.71,0,1.35-0.13,1.93-0.37c0.57-0.25,1.06-0.59,1.46-1.02c0.4-0.43,0.71-0.94,0.93-1.53
			c0.22-0.59,0.33-1.22,0.33-1.9c0-0.68-0.11-1.32-0.33-1.9c-0.22-0.59-0.53-1.1-0.93-1.53c-0.4-0.43-0.89-0.77-1.46-1.02
			c-0.57-0.25-1.21-0.37-1.93-0.37c-0.71,0-1.35,0.12-1.93,0.37c-0.57,0.25-1.06,0.59-1.46,1.02c-0.4,0.43-0.71,0.94-0.93,1.53
			C170.85,92.56,170.75,93.2,170.75,93.88z"/>
		<path class="st2" d="M197.95,98.65c-0.64,0.36-1.3,0.62-1.99,0.76c-0.69,0.15-1.38,0.23-2.1,0.23c-0.83,0-1.6-0.14-2.3-0.43
			c-0.7-0.28-1.29-0.68-1.79-1.19c-0.5-0.51-0.88-1.12-1.16-1.83s-0.42-1.48-0.42-2.31c0-0.84,0.14-1.6,0.42-2.31
			c0.28-0.7,0.67-1.31,1.16-1.82c0.49-0.51,1.09-0.91,1.79-1.2c0.7-0.29,1.46-0.43,2.3-0.43c1.63,0,2.95,0.51,3.95,1.52l-0.74,0.77
			c-0.17-0.2-0.37-0.38-0.61-0.55c-0.24-0.17-0.51-0.31-0.79-0.43c-0.28-0.12-0.58-0.21-0.89-0.28c-0.31-0.07-0.61-0.1-0.91-0.1
			c-0.71,0-1.35,0.12-1.93,0.37c-0.57,0.25-1.06,0.59-1.46,1.02c-0.4,0.43-0.71,0.94-0.93,1.53c-0.22,0.59-0.32,1.22-0.32,1.9
			c0,0.68,0.11,1.32,0.32,1.9c0.22,0.59,0.53,1.1,0.93,1.53c0.4,0.43,0.89,0.77,1.46,1.02c0.57,0.25,1.22,0.37,1.93,0.37
			c0.59,0,1.14-0.05,1.66-0.14c0.52-0.09,0.98-0.26,1.41-0.51v-3.68h-2.63v-0.93h3.65V98.65z"/>
		<path class="st2" d="M206.53,88.4h1.02v10.96h-1.02V88.4z"/>
		<path class="st2" d="M216.12,88.4h6.7v0.93h-5.68v3.9h5.33v0.93h-5.33v4.27h5.93v0.93h-6.95V88.4z"/>
		<path class="st2" d="M231.17,97.33c0.27,0.47,0.62,0.81,1.04,1.04c0.43,0.23,0.92,0.34,1.46,0.34c0.34,0,0.66-0.05,0.96-0.16
			s0.56-0.25,0.78-0.43c0.22-0.19,0.4-0.41,0.53-0.67c0.13-0.26,0.19-0.56,0.19-0.89c0-0.38-0.08-0.7-0.24-0.94
			c-0.16-0.25-0.37-0.45-0.64-0.61c-0.27-0.16-0.57-0.3-0.9-0.41c-0.34-0.11-0.68-0.23-1.04-0.34c-0.36-0.11-0.7-0.24-1.04-0.39
			c-0.34-0.15-0.64-0.33-0.9-0.57c-0.27-0.23-0.48-0.52-0.64-0.87c-0.16-0.35-0.24-0.78-0.24-1.3c0-0.49,0.1-0.92,0.29-1.29
			c0.19-0.38,0.45-0.69,0.77-0.94c0.32-0.25,0.7-0.44,1.12-0.57c0.42-0.13,0.87-0.19,1.33-0.19c0.6,0,1.15,0.11,1.66,0.32
			c0.51,0.21,0.95,0.56,1.32,1.06l-0.88,0.63c-0.26-0.36-0.56-0.63-0.9-0.81c-0.35-0.18-0.76-0.27-1.23-0.27
			c-0.33,0-0.65,0.05-0.94,0.13c-0.3,0.09-0.56,0.22-0.78,0.39c-0.22,0.17-0.4,0.38-0.53,0.64c-0.13,0.26-0.2,0.56-0.2,0.91
			c0,0.55,0.14,0.97,0.42,1.26c0.28,0.29,0.63,0.53,1.05,0.7c0.42,0.17,0.87,0.32,1.36,0.45c0.49,0.13,0.94,0.3,1.36,0.52
			c0.42,0.22,0.77,0.52,1.05,0.9c0.28,0.39,0.42,0.92,0.42,1.6c0,0.5-0.09,0.93-0.28,1.32c-0.19,0.38-0.44,0.7-0.75,0.97
			c-0.32,0.26-0.68,0.46-1.09,0.6c-0.41,0.14-0.84,0.2-1.28,0.2c-0.72,0-1.39-0.13-2-0.38c-0.61-0.25-1.13-0.68-1.56-1.28
			L231.17,97.33z"/>
	</g>
</g>
</svg>
