<?xml version="1.0" encoding="utf-8"?>
<!-- Generator: Adobe Illustrator 23.0.1, SVG Export Plug-In . SVG Version: 6.00 Build 0)  -->
<svg version="1.1" id="Layer_1" xmlns="http://www.w3.org/2000/svg" xmlns:xlink="http://www.w3.org/1999/xlink" x="0px" y="0px"
	 viewBox="0 0 36 36" style="enable-background:new 0 0 36 36;" xml:space="preserve">
<path d="M35.25,9.3c-0.41-1.56-1.63-2.79-3.18-3.2C29.26,5.34,18,5.34,18,5.34S6.74,5.34,3.94,6.1C2.39,6.52,1.17,7.75,0.75,9.3
	C0,12.13,0,18.03,0,18.03s0,5.9,0.75,8.72c0.41,1.56,1.63,2.74,3.18,3.15C6.74,30.66,18,30.66,18,30.66s11.26,0,14.06-0.76
	c1.55-0.42,2.77-1.59,3.18-3.15C36,23.92,36,18.03,36,18.03S36,12.13,35.25,9.3z M14.32,23.38V12.67l9.41,5.35L14.32,23.38
	L14.32,23.38z"/>
</svg>
