<?xml version="1.0" encoding="utf-8"?>
<!-- Generator: Adobe Illustrator 23.0.1, SVG Export Plug-In . SVG Version: 6.00 Build 0)  -->
<svg version="1.1" id="Layer_1" xmlns="http://www.w3.org/2000/svg" xmlns:xlink="http://www.w3.org/1999/xlink" x="0px" y="0px"
	 viewBox="0 0 36 36" style="enable-background:new 0 0 36 36;" xml:space="preserve">
<path d="M32.3,10.67c0.02,0.32,0.02,0.64,0.02,0.96c0,9.75-7.42,20.99-20.99,20.99c-4.18,0-8.06-1.21-11.33-3.31
	c0.59,0.07,1.16,0.09,1.78,0.09c3.45,0,6.62-1.16,9.16-3.15c-3.24-0.07-5.96-2.19-6.9-5.12c0.46,0.07,0.91,0.11,1.39,0.11
	c0.66,0,1.32-0.09,1.94-0.25C4,20.31,1.46,17.34,1.46,13.75v-0.09c0.98,0.55,2.12,0.89,3.34,0.94c-1.99-1.32-3.29-3.59-3.29-6.14
	c0-1.37,0.37-2.63,1.01-3.72c3.63,4.48,9.09,7.4,15.21,7.72c-0.11-0.55-0.18-1.12-0.18-1.69c0-4.07,3.29-7.38,7.38-7.38
	c2.12,0,4.04,0.89,5.39,2.33c1.67-0.32,3.27-0.94,4.68-1.78c-0.55,1.71-1.71,3.15-3.24,4.07c1.48-0.16,2.92-0.57,4.25-1.14
	C35,8.31,33.74,9.62,32.3,10.67L32.3,10.67z"/>
</svg>
