<?xml version="1.0" encoding="utf-8"?>
<!-- Generator: Adobe Illustrator 23.0.1, SVG Export Plug-In . SVG Version: 6.00 Build 0)  -->
<svg version="1.1" id="Layer_1" xmlns="http://www.w3.org/2000/svg" xmlns:xlink="http://www.w3.org/1999/xlink" x="0px" y="0px"
	 viewBox="0 0 36 36" style="enable-background:new 0 0 36 36;" xml:space="preserve">
<path d="M18,8.77c-5.11,0-9.23,4.12-9.23,9.23s4.12,9.23,9.23,9.23s9.23-4.12,9.23-9.23S23.11,8.77,18,8.77z M18,24
	c-3.3,0-6-2.69-6-6s2.69-6,6-6s6,2.69,6,6S21.3,24,18,24L18,24z M29.76,8.39c0,1.2-0.96,2.15-2.15,2.15c-1.2,0-2.15-0.96-2.15-2.15
	s0.96-2.15,2.15-2.15S29.76,7.21,29.76,8.39z M35.87,10.58c-0.14-2.88-0.8-5.44-2.91-7.54c-2.1-2.1-4.66-2.76-7.54-2.91
	c-2.97-0.17-11.88-0.17-14.85,0c-2.88,0.14-5.43,0.8-7.54,2.9s-2.76,4.66-2.91,7.54c-0.17,2.97-0.17,11.88,0,14.85
	c0.14,2.88,0.8,5.44,2.91,7.54s4.66,2.76,7.54,2.91c2.97,0.17,11.88,0.17,14.85,0c2.88-0.14,5.44-0.8,7.54-2.91
	c2.1-2.1,2.76-4.66,2.91-7.54C36.04,22.45,36.04,13.55,35.87,10.58L35.87,10.58z M32.03,28.61c-0.63,1.57-1.84,2.79-3.42,3.42
	c-2.37,0.94-7.99,0.72-10.61,0.72s-8.25,0.21-10.61-0.72c-1.57-0.63-2.79-1.84-3.42-3.42C3.03,26.24,3.25,20.62,3.25,18
	S3.04,9.75,3.97,7.39C4.6,5.82,5.81,4.6,7.39,3.97C9.76,3.03,15.39,3.25,18,3.25s8.25-0.21,10.61,0.72
	c1.57,0.63,2.79,1.84,3.42,3.42c0.94,2.37,0.72,7.99,0.72,10.61S32.97,26.25,32.03,28.61z"/>
</svg>
